<svg width="518" height="100" viewBox="0 0 518 100" fill="none" xmlns="http://www.w3.org/2000/svg">
<path d="M169.881 7.57513C163.869 2.52505 155.572 0 144.991 0H114.811V5.53104H144.991C153.889 5.53104 160.742 7.57512 165.552 11.543C170.241 15.511 172.646 21.1622 172.646 28.3766C172.646 35.7113 170.241 41.3626 165.552 45.2102C160.742 49.1782 153.889 51.102 144.991 51.102H114.811V84.168H120.943V56.633H144.991C155.572 56.633 163.869 54.2282 169.881 49.1782C175.893 44.1281 178.899 37.2744 178.899 28.3766C178.899 19.5991 175.893 12.6252 169.881 7.57513Z" fill="#009688"/>
<path d="M264.078 38.7173H209.609V44.1281H264.078V38.7173ZM264.078 0H209.609V5.53104H264.078V0ZM209.609 78.637V84.168H264.078V78.637H209.609Z" fill="#009688"/>
<path d="M368.718 0H362.585V73.1059L305.351 0H300.181V84.168H306.313V11.0621L363.667 84.168H368.718V0Z" fill="#009688"/>
<path d="M408.131 0V84.168H414.263V0H408.131Z" fill="#009688"/>
<path d="M508.682 7.57513C502.67 2.52505 494.373 0 483.792 0H453.612V5.53104H483.792C492.69 5.53104 499.544 7.57512 504.353 11.543C509.043 15.511 511.448 21.1622 511.448 28.3766C511.448 35.7113 509.043 41.3626 504.353 45.2102C499.544 49.1782 492.69 51.102 483.792 51.102H453.612V84.168H459.744V56.633H483.792C494.373 56.633 502.67 54.2282 508.682 49.1782C514.694 44.1281 517.7 37.2744 517.7 28.3766C517.7 19.5991 514.694 12.6252 508.682 7.57513Z" fill="#009688"/>
<path d="M77.4561 43.769C77.4561 65.9955 60.6131 83.704 40.2061 83.704C19.799 83.704 2.95605 65.9955 2.95605 43.769C2.95605 21.5425 19.799 3.83401 40.2061 3.83401C60.6131 3.83401 77.4561 21.5425 77.4561 43.769Z" stroke="#009688" stroke-width="5.5"/>
</svg>